<mxfile host="app.diagrams.net" modified="2023-07-18T01:24:48.423Z" agent="Mozilla/5.0 (Macintosh; Intel Mac OS X 10_15_7) AppleWebKit/537.36 (KHTML, like Gecko) Chrome/114.0.0.0 Safari/537.36" version="21.3.0" etag="NkQ4cFd3TQHu-e5Bawr7" type="github">
  <diagram name="第 1 页" id="OaAXD1NmUu3i7Wb7ZRrW">
    <mxGraphModel>
      <root>
        <mxCell id="0" />
        <mxCell id="1" parent="0" />
      </root>
    </mxGraphModel>
  </diagram>
</mxfile>
